<svg width="248" height="248" viewBox="0 0 248 248" fill="none" xmlns="http://www.w3.org/2000/svg">
  <path d="M124 236C185.856 236 236 185.856 236 124C236 62.1441 185.856 12 124 12C62.1441 12 12 62.1441 12 124C12 185.856 62.1441 236 124 236Z" stroke="#F8FBFF" stroke-width="24"/>
  <path d="M124 12C172 12 212 52 212 100C212 148 172 188 124 188" stroke="#F8FBFF" stroke-width="24" stroke-linecap="round" stroke-linejoin="round"/>
  <path d="M124 236C76 236 36 196 36 148C36 100 76 60 124 60" stroke="#F8FBFF" stroke-width="24" stroke-linecap="round" stroke-linejoin="round"/>
  <rect x="108" y="108" width="32" height="32" rx="16" fill="#F8FBFF"/>
</svg>
